Coordinates
version=1
nRows=30
nColumns=23
inDegrees=yes

Units are S.I. units (second, meters, Newtons, ...)
If the header above contains a line with 'inDegrees', this indicates whether rotational values are in degrees (yes) or radians (no).

endheader
time	pelvis_tilt	pelvis_list	pelvis_rotation	pelvis_tx	pelvis_ty	pelvis_tz	hip_flexion_r	hip_adduction_r	hip_rotation_r	knee_angle_r	knee_angle_r_beta	ankle_angle_r	subtalar_angle_r	mtp_angle_r	hip_flexion_l	hip_adduction_l	hip_rotation_l	knee_angle_l	knee_angle_l_beta	ankle_angle_l	subtalar_angle_l	mtp_angle_l
     22.50000000	     -8.46607204	      4.73144482	      0.22084608	      2.35325378	      1.07181401	      1.05176779	     -5.12033138	     -3.46581396	     -7.33420131	     23.70961651	      0.41381087	     -8.44428146	      2.15415601	      0.00000000	     34.05904666	     -0.40992636	    -11.31466103	     46.25745449	      0.80734488	      4.81922408	     -4.69384689	      0.00000000
     22.50666667	     -8.65611242	      4.74233119	      0.35375560	      2.35471896	      1.07451574	      1.05125968	     -5.46003328	     -3.67990877	     -7.67116243	     23.80636329	      0.41549942	    -10.96530428	      1.80835348	      0.00000000	     33.60322658	     -0.20691015	    -12.40868889	     42.66560457	      0.74465528	      4.55132122	     -3.10464322	      0.00000000
     22.51333333	     -9.03097620	      4.65686772	      0.52007907	      2.35599491	      1.07653086	      1.05053266	     -5.43646569	     -3.85223387	     -8.09604935	     24.20940520	      0.42253383	    -13.28859661	      1.61421193	      0.00000000	     33.36216595	      0.06670048	    -13.21291049	     39.14415788	      0.68319444	      4.27382529	     -1.76082758	      0.00000000
     22.52000000	     -8.88455776	      4.75258002	      0.49736074	      2.35742174	      1.07875076	      1.04993429	     -5.91822405	     -4.18126567	     -8.09485169	     24.66649183	      0.43051150	    -15.35268238	      1.01269154	      0.00000000	     32.44931404	      0.42392882	    -14.43984261	     35.61394327	      0.62158057	      4.18527392	      0.04037409	      0.00000000
     22.52666667	     -8.96872014	      4.75591211	      0.50049548	      2.35859338	      1.08020446	      1.04918941	     -5.99344740	     -4.42786430	     -8.00489762	     25.41615504	      0.44359559	    -17.15501639	      0.44555337	      0.00000000	     31.83650993	      0.86715700	    -15.21859597	     32.23530572	      0.56261222	      4.12095555	      1.46797645	      0.00000000
     22.53333333	     -9.10378967	      4.78788050	      0.50508757	      2.35961185	      1.08103578	      1.04833225	     -5.87847534	     -4.74831708	     -7.93322773	     26.42879382	      0.46126947	    -18.61360202	     -0.10125922	      0.00000000	     31.30189413	      1.43518199	    -15.74902898	     29.01746574	      0.50645032	      4.04268588	      2.57783097	      0.00000000
     22.54000000	     -9.18599906	      4.82498347	      0.49772959	      2.36044339	      1.08144101	      1.04753409	     -5.70681548	     -5.04342205	     -7.66451956	     27.63730617	      0.48236199	    -19.72606870	     -0.61122108	      0.00000000	     30.74657514	      2.06571073	    -16.00872619	     26.01753323	      0.45409162	      3.98027534	      3.51016594	      0.00000000
     22.54666667	     -9.22377069	      4.91498288	      0.45780748	      2.36117778	      1.08141523	      1.04682196	     -5.48928731	     -5.36694571	     -7.20921621	     29.00808317	      0.50628656	    -20.40495232	     -1.15846578	      0.00000000	     30.15652673	      2.76036350	    -16.10288487	     23.23577870	      0.40554084	      3.89657803	      4.20500090	      0.00000000
     22.55333333	     -8.99681195	      5.20576400	      0.38488447	      2.36177842	      1.08130658	      1.04625027	     -5.48331486	     -5.83105033	     -6.49036874	     30.50319571	      0.53238120	    -20.81159522	     -1.95070372	      0.00000000	     29.17458710	      3.84994853	    -15.28961482	     20.32495818	      0.35473744	      3.23973015	      3.19900003	      0.00000000
     22.56000000	     -8.88327625	      5.46673397	      0.29726307	      2.36218522	      1.08039775	      1.04582707	     -5.20511497	     -6.27115527	     -5.74881570	     32.28052557	      0.56340146	    -20.74562907	     -2.44462483	      0.00000000	     28.51023818	      4.65646529	    -15.12449913	     18.15430028	      0.31685231	      2.83748284	      3.34358915	      0.00000000
     22.56666667	     -8.80975858	      5.64097798	      0.37026483	      2.36254042	      1.07901769	      1.04538008	     -4.86633099	     -6.54460609	     -5.03647781	     34.11287258	      0.59538194	    -20.24220646	     -2.95420133	      0.00000000	     27.98566239	      5.36750109	    -14.85020790	     16.48590830	      0.28773338	      2.61636383	      3.68409838	      0.00000000
     22.57333333	     -8.45606564	      6.07715856	      0.36266524	      2.36282664	      1.07758284	      1.04515943	     -4.73684492	     -7.13434432	     -4.41419930	     36.09444251	      0.62996686	    -19.55993236	     -3.11963822	      0.00000000	     26.99796654	      6.47938804	    -13.64633883	     14.63594437	      0.25544542	      1.58064624	      1.93570773	      0.00000000
     22.58000000	     -8.23561436	      6.38679171	      0.43767622	      2.36291860	      1.07537045	      1.04498318	     -4.38522976	     -7.50713954	     -3.67625814	     38.21246092	      0.66693326	    -18.64974577	     -3.53258845	      0.00000000	     26.53640405	      7.16319464	    -13.54775244	     13.97280437	      0.24387144	      1.18750279	      1.97797967	      0.00000000
     22.58666667	     -7.94936910	      6.73785771	      0.58457826	      2.36287067	      1.07281657	      1.04477690	     -4.04548792	     -7.91324313	     -3.05314547	     40.43054472	      0.70564612	    -17.61995378	     -3.91484621	      0.00000000	     26.12599793	      7.85462064	    -13.46570084	     13.84950019	      0.24171938	      0.87632507	      1.92350293	      0.00000000
     22.59333333	     -7.62437348	      7.10826145	      0.79422473	      2.36275513	      1.06985120	      1.04456527	     -3.69789191	     -8.33583260	     -2.54579606	     42.73208312	      0.74581555	    -16.52202959	     -4.29545104	      0.00000000	     25.79267946	      8.52065791	    -13.42839341	     14.26843482	      0.24903117	      0.71418343	      1.77514928	      0.00000000
     22.60000000	     -7.40769073	      7.45739172	      1.06924135	      2.36246598	      1.06629757	      1.04434274	     -3.13597777	     -8.78053761	     -2.23231109	     45.19187096	      0.78874694	    -15.30142047	     -4.42799105	      0.00000000	     25.73045786	      9.09169528	    -13.50536736	     15.29089412	      0.26687645	      0.69553683	      1.61778277	      0.00000000
     22.60666667	     -6.85137278	      7.82860702	      1.40888202	      2.36224508	      1.06280690	      1.04412686	     -2.98726822	     -9.19227731	     -1.98384494	     47.53394288	      0.82962381	    -14.29961726	     -5.08876355	      0.00000000	     25.29706030	      9.70375232	    -13.39622152	     16.59949941	      0.28971592	      0.88121791	      1.26163090	      0.00000000
     22.61333333	     -6.89075623	      8.05642919	      1.71180468	      2.36162154	      1.05806080	      1.04397058	     -1.95256241	     -9.53862088	     -1.73621196	     50.22466392	      0.87658575	    -13.15862425	     -5.27129941	      0.00000000	     25.75247199	      9.98373937	    -13.71142636	     18.67129343	      0.32587555	      1.63594452	      1.32170023	      0.00000000
     22.62000000	     -6.25488359	      8.45747309	      2.02678022	      2.36121695	      1.05394070	      1.04385079	     -1.75941983	    -10.03317957	     -1.61177588	     52.66993360	      0.91926376	    -12.30180134	     -6.12974787	      0.00000000	     25.25929941	     10.56600226	    -13.49790201	     20.49248644	      0.35766136	      2.29563361	      0.65266310	      0.00000000
     22.62666667	     -6.41514738	      8.54054396	      2.35839986	      2.36031807	      1.04845834	      1.04379514	     -0.46287012	    -10.18271262	     -1.29840241	     55.40402147	      0.96698259	    -11.46151040	     -6.85591498	      0.00000000	     25.82239852	     10.76048205	    -13.21419490	     22.90234146	      0.39972126	      3.58827124	      0.01026585	      0.00000000
     22.63333333	     -6.20662347	      8.69598035	      2.66204590	      2.35943751	      1.04324112	      1.04379395	      0.42707636	    -10.43004880	     -1.09202357	     58.02587248	      1.01274253	    -10.74177122	     -7.90558756	      0.00000000	     25.87043671	     11.05121612	    -12.84309027	     25.21196710	      0.44003184	      5.06558544	     -0.73825179	      0.00000000
     22.64000000	     -6.00597727	      8.85872716	      2.93190068	      2.35839743	      1.03787874	      1.04390454	      1.40614286	    -10.69627749	     -0.86043884	     60.65824140	      1.05868603	    -10.06856740	     -9.03161213	      0.00000000	     25.88657165	     11.37959539	    -12.29417754	     27.51620169	      0.48024832	      6.82417174	     -1.68328466	      0.00000000
     22.64666667	     -5.84657596	      8.98660824	      3.18118689	      2.35716804	      1.03241988	      1.04403557	      2.50614983	    -10.92704912	     -0.58817188	     63.27918764	      1.10443017	     -9.42665648	    -10.25247990	      0.00000000	     25.91158836	     11.68882016	    -11.67517138	     29.79366626	      0.51999757	      8.64950498	     -2.74447178	      0.00000000
     22.65333333	     -5.61319175	      9.14181951	      3.42428650	      2.35575432	      1.02711538	      1.04417861	      3.58825598	    -11.24438437	     -0.40052815	     65.86342002	      1.14953354	     -8.74223980	    -11.35289301	      0.00000000	     25.80074840	     12.04997621	    -10.99084912	     31.97234858	      0.55802275	     10.52970933	     -3.81381465	      0.00000000
     22.66000000	     -5.55866565	      9.22490578	      3.64450616	      2.35410132	      1.02169708	      1.04443624	      4.96513352	    -11.44625439	     -0.06804682	     68.43232380	      1.19436937	     -8.02389421	    -12.52142170	      0.00000000	     25.88116539	     12.35841348	    -10.19992742	     34.13083353	      0.59569542	     12.35739710	     -5.01640990	      0.00000000
     22.66666667	     -5.38617709	      9.35425296	      3.86096116	      2.35234389	      1.01664346	      1.04467075	      6.25536206	    -11.75344146	      0.17948401	     70.91275087	      1.23766098	     -7.21875904	    -13.46356668	      0.00000000	     25.75744846	     12.71273003	     -9.43048392	     36.14480399	      0.63084584	     14.12794358	     -6.04971108	      0.00000000
     22.67333333	     -5.20710165	      9.49261104	      4.02123412	      2.35046618	      1.01189728	      1.04498489	      7.61103408	    -12.06537816	      0.50567520	     73.30724564	      1.27945280	     -6.33259572	    -14.26039918	      0.00000000	     25.55679052	     13.05987094	     -8.67705174	     38.00738370	      0.66335399	     15.83717892	     -7.02827403	      0.00000000
     22.68000000	     -4.89935913	      9.68604894	      4.16044767	      2.34861241	      1.00769890	      1.04534112	      8.84548391	    -12.44178473	      0.83306165	     75.55052018	      1.31860533	     -5.37363136	    -14.90121980	      0.00000000	     25.10442888	     13.43000008	     -7.99051914	     39.67124384	      0.69239382	     17.55764476	     -7.67588222	      0.00000000
     22.68666667	     -4.76009035	      9.80078651	      4.25690407	      2.34671579	      1.00373086	      1.04576771	     10.34813295	    -12.74432023	      1.22073960	     77.70362477	      1.35618409	     -4.31818414	    -15.29201605	      0.00000000	     24.74580201	     13.65053883	     -7.44529727	     41.16850472	      0.71852596	     19.06294864	     -8.17366427	      0.00000000
     22.69333333	     -4.54927313	      9.95136676	      4.29884317	      2.34489704	      1.00036241	      1.04627094	     11.79535004	    -13.07018138	      1.66194786	     79.67102657	      1.39052173	     -3.25823633	    -15.56053027	      0.00000000	     24.16858017	     13.84013265	     -7.03013391	     42.41533337	      0.74028722	     20.57145741	     -8.35986492	      0.00000000
